<svg width="25" height="24" viewBox="0 0 25 24" fill="none" xmlns="http://www.w3.org/2000/svg">
<path d="M2.92963 14.954L1.06503 14.5426C0.518542 15.6452 -6.10352e-05 16.8837 -6.10352e-05 18.3105C-6.10352e-05 19.7101 0.497546 20.9336 1.06503 22.0785L7.37299 20.687V23.4312L9.57025 22.3325L11.7675 23.4312V20.6884L18.0263 22.0792C18.5685 20.9853 19.0917 19.7435 19.0917 18.3105C19.0917 18.0636 19.0735 17.8177 19.0428 17.5781H24.9999V0H2.92963V14.954ZM1.90082 20.394C1.71029 19.8902 1.46478 19.0898 1.46478 18.3105C1.46478 17.5312 1.71034 16.7307 1.90082 16.227L7.37299 17.4342V19.1869L1.90082 20.394ZM10.3027 21.061L9.57025 20.6948L8.83783 21.061V17.5781H10.3027V21.061ZM17.1912 20.3931L11.7675 19.1878V17.4332L17.1912 16.2279C17.3817 16.7318 17.6269 17.5317 17.6269 18.3105C17.6269 19.0895 17.3816 19.8895 17.1912 20.3931ZM23.5351 1.46484V16.1133H18.7037C18.4636 15.3788 18.2701 15.0319 18.0263 14.5418L10.9547 16.1133H8.18529L4.39447 15.277V1.46484H23.5351Z" fill="white"/>
<path d="M8.83783 2.92969H19.0917V4.39453H8.83783V2.92969Z" fill="white"/>
<path d="M5.85931 8.78906H22.0703V10.2539H5.85931V8.78906Z" fill="white"/>
<path d="M8.83783 11.7188H19.0917V13.1836H8.83783V11.7188Z" fill="white"/>
<path d="M10.3027 5.85938H11.7675V7.32422H10.3027V5.85938Z" fill="white"/>
<path d="M13.2324 5.85938H14.6972V7.32422H13.2324V5.85938Z" fill="white"/>
<path d="M16.162 5.85938H17.6269V7.32422H16.162V5.85938Z" fill="white"/>
</svg>
